<svg width="84" height="85" viewBox="0 0 84 85" fill="none" xmlns="http://www.w3.org/2000/svg">
<path d="M0.333344 42.5C0.333344 65.5118 18.9881 84.1666 42 84.1666C65.0119 84.1666 83.6667 65.5118 83.6667 42.5C83.6667 19.4881 65.0119 0.83329 42 0.83329C18.9881 0.83329 0.333344 19.4881 0.333344 42.5Z" fill="#2A3E34"/>
<path fill-rule="evenodd" clip-rule="evenodd" d="M57.6371 27.2478C59.1571 28.2864 59.5473 30.3606 58.5086 31.8805L41.4253 56.8805C40.8658 57.6994 39.9706 58.2266 38.9831 58.3188C37.9957 58.411 37.0184 58.0587 36.3169 57.3577L25.8937 46.941C24.5915 45.6397 24.5909 43.5291 25.8922 42.227C27.1936 40.9248 29.3041 40.9241 30.6063 42.2255L38.1877 49.8022L53.0044 28.1193C54.043 26.5993 56.1172 26.2091 57.6371 27.2478Z" fill="white"/>
</svg>
